<svg width="16" height="20" viewBox="0 0 16 20" fill="none" xmlns="http://www.w3.org/2000/svg">
<path d="M15.579 12.92L14.359 11.4C13.859 10.8 13.599 10.04 13.599 9.26V7.62C13.599 5.14 11.979 3.04 9.75898 2.32V1.7C9.75898 1.04 9.21897 0.5 8.55897 0.5H7.45897C6.79897 0.5 6.25897 1.04 6.25897 1.7V2.32C4.01897 3.06 2.39897 5.16 2.39897 7.64V9.28C2.39897 10.06 2.13897 10.82 1.63897 11.42L0.398974 12.94C-0.321026 13.82 0.318974 15.2 1.49897 15.2H14.499C15.679 15.2 16.319 13.82 15.579 12.92Z" fill="#0057FF"/>
<path d="M7.99969 19.4999C9.55969 19.4999 10.8197 18.2399 10.8197 16.6799H5.17969C5.17969 18.2399 6.43969 19.4999 7.99969 19.4999Z" fill="#0057FF"/>
</svg>
