<svg width="32" height="35" viewBox="0 0 32 35" fill="none" xmlns="http://www.w3.org/2000/svg">
<path fill-rule="evenodd" clip-rule="evenodd" d="M6.66776 15.1689C8.75796 9.88981 14.8584 7.25602 20.2927 9.28642C25.7266 11.3169 28.438 17.2425 26.3478 22.522C24.2576 27.8007 18.1577 30.4345 12.7233 28.4041C7.28896 26.3737 4.57806 20.448 6.66776 15.1689ZM31.889 24.5922C32.4006 23.2999 30.4271 22.4632 29.8136 23.7642L29.7943 23.8095C26.9196 30.966 18.7923 34.475 11.398 31.7526C4.03046 28.9596 0.41836 21.0649 3.22126 13.8814C5.81366 7.42862 12.6753 3.94192 19.4211 5.31452L15.9719 6.15942L20.8143 7.96881L26.8653 6.72622L23.2294 1.86881L18.387 0.0598145L20.6531 3.35641C12.608 1.32861 4.21816 5.38772 1.12666 13.0988C-2.12064 21.405 2.06956 30.5627 10.5923 33.7869C19.1424 36.9414 28.5699 32.8713 31.889 24.5922ZM15.8848 20.1733C15.4401 20.0072 15.1672 19.5956 15.1654 19.1592L14.5132 12.6048C14.4544 12.0088 14.9046 11.4778 15.5182 11.4202C16.1321 11.3626 16.6788 11.8 16.7381 12.3964L17.3327 18.3787L21.1388 19.8005C21.7168 20.0168 22.0054 20.6477 21.7833 21.2092C21.5607 21.7708 20.9112 22.0516 20.3331 21.8353L15.8848 20.1733Z" fill="#0057FF"/>
</svg>
