<svg width="20" height="17" viewBox="0 0 20 17" fill="none" xmlns="http://www.w3.org/2000/svg">
<path d="M18.9375 0.0480957H1.06324C0.756577 0.0480957 0.515625 0.298729 0.515625 0.617716V15.6101C0.515625 15.9291 0.756577 16.1797 1.06324 16.1797H18.9594C19.2661 16.1797 19.5071 15.9291 19.5071 15.6101V0.617716C19.4851 0.298729 19.2442 0.0480957 18.9375 0.0480957ZM16.7032 1.0962C17.1413 0.868349 17.689 1.07341 17.908 1.52911C18.1271 1.9848 17.9299 2.55442 17.4918 2.78227C17.0537 3.01012 16.5061 2.80506 16.2871 2.34936C16.0899 1.87088 16.2651 1.30126 16.7032 1.0962ZM13.768 1.0962C14.2061 0.868349 14.7537 1.07341 14.9728 1.52911C15.1918 1.9848 14.9947 2.55442 14.5566 2.78227C14.1185 3.01012 13.5709 2.80506 13.3518 2.34936C13.1328 1.87088 13.308 1.30126 13.768 1.0962ZM10.8109 1.0962C11.249 0.868349 11.7966 1.07341 12.0156 1.52911C12.2347 1.9848 12.0375 2.55442 11.5994 2.78227C11.1613 3.01012 10.6137 2.80506 10.3947 2.34936C10.1756 1.87088 10.3728 1.30126 10.8109 1.0962ZM18.3899 15.0405H1.61086V4.03544H18.4118V15.0405H18.3899Z" fill="#0057FF"/>
<path d="M7.06508 8.7063H4.58984V14.3569H7.06508V8.7063Z" fill="#0057FF"/>
<path d="M11.2272 6.90625H8.75195V14.3341H11.2272V6.90625Z" fill="#0057FF"/>
<path d="M15.4108 4.81006H12.9355V14.3341H15.4108V4.81006Z" fill="#0057FF"/>
</svg>
