<svg width="41" height="26" viewBox="0 0 41 26" fill="none" xmlns="http://www.w3.org/2000/svg">
<path d="M21.2953 7.20505V10.3953C21.2953 12.0501 25.3668 13.9042 30.817 13.9042C36.2673 13.9042 40.3402 12.0501 40.3402 10.3953V7.20505C38.3992 8.66065 34.9396 9.59615 30.817 9.59615C26.6944 9.59615 23.2363 8.66145 21.2953 7.20505ZM21.2953 19.1959V22.3846C21.2953 24.0441 25.3668 25.8966 30.817 25.8966C36.2673 25.8966 40.3402 24.0441 40.3402 22.3846V19.1959C38.3992 20.6531 34.9396 21.587 30.817 21.587C26.6944 21.587 23.2363 20.6531 21.2953 19.1959ZM0.272705 19.1974V22.3877C0.272705 24.0425 4.3442 25.8966 9.7944 25.8966C15.2447 25.8966 19.3176 24.0425 19.3176 22.3877V19.1974C17.3766 20.6531 13.917 21.5886 9.7944 21.5886C5.6718 21.5886 2.21371 20.6531 0.272705 19.1974ZM9.7944 12.8791C4.3442 12.8791 0.272705 14.7332 0.272705 16.3895C0.272705 18.049 4.3442 19.9015 9.7944 19.9015C15.2447 19.9015 19.3176 18.049 19.3176 16.3895C19.3169 14.7332 15.2439 12.8791 9.7944 12.8791ZM21.2953 13.1993V16.3895C21.2953 18.0475 25.3668 19.9015 30.817 19.9015C36.2673 19.9015 40.3402 18.0475 40.3402 16.3895V13.1993C38.3992 14.6565 34.9396 15.592 30.817 15.592C26.6944 15.592 23.2363 14.6573 21.2953 13.1993ZM30.817 0.887451C25.3668 0.887451 21.2953 2.74145 21.2953 4.39785C21.2953 6.05735 25.3668 7.90985 30.817 7.90985C36.2673 7.90985 40.3402 6.05735 40.3402 4.39785C40.3402 2.74145 36.2673 0.887451 30.817 0.887451Z" fill="#0057FF"/>
</svg>
