<svg width="21" height="22" viewBox="0 0 21 22" fill="none" xmlns="http://www.w3.org/2000/svg">
<path fill-rule="evenodd" clip-rule="evenodd" d="M11.0625 1.14684L19.6989 5.21374C20.1495 5.43557 20.1495 6.10107 19.6989 6.3229L11.0625 10.3898C10.687 10.5377 10.3115 10.5377 9.93601 10.3898L1.37474 6.3229C0.849046 6.10107 0.849046 5.43557 1.37474 5.21374L9.93601 1.14684C10.3115 0.925011 10.687 0.925011 11.0625 1.14684Z" fill="#0057FF"/>
<path fill-rule="evenodd" clip-rule="evenodd" d="M17.6712 7.95068L19.6989 8.91195C20.1495 9.13378 20.1495 9.79928 19.6989 10.0211L11.0625 14.088C10.687 14.2359 10.3115 14.2359 9.93601 14.088L1.37474 10.0211C0.849046 9.79928 0.849046 9.13378 1.37474 8.91195L3.40241 7.95068L9.71071 10.9084C10.2364 11.2042 10.8372 11.2042 11.3629 10.9084L17.6712 7.95068Z" fill="#0057FF"/>
<path fill-rule="evenodd" clip-rule="evenodd" d="M17.6712 11.6479L19.6989 12.6092C20.1495 12.831 20.1495 13.4965 19.6989 13.7184L11.0625 17.7853C10.687 18.0071 10.3115 18.0071 9.93601 17.7853L1.37474 13.7184C0.849046 13.4965 0.849046 12.831 1.37474 12.6092L3.40241 11.6479L9.71071 14.6796C10.2364 14.9015 10.8372 14.9015 11.3629 14.6796L17.6712 11.6479Z" fill="#0057FF"/>
<path fill-rule="evenodd" clip-rule="evenodd" d="M17.6712 15.4189L19.6989 16.3063C20.1495 16.602 20.1495 17.2675 19.6989 17.4894L11.0625 21.5563C10.687 21.7042 10.3115 21.7042 9.93601 21.5563L1.37474 17.4894C0.849046 17.2675 0.849046 16.602 1.37474 16.3063L3.40241 15.4189L9.71071 18.3767C10.2364 18.5985 10.8372 18.5985 11.3629 18.3767L17.6712 15.4189Z" fill="#0057FF"/>
</svg>
