<svg width="28" height="28" viewBox="0 0 28 28" fill="none" xmlns="http://www.w3.org/2000/svg">
<path d="M27.4132 19.7422L19.5233 3.96231L11.6333 19.7422H27.4132ZM18.703 9.89841H20.3436V13.1797H18.703V9.89841ZM20.3436 14.8203V16.4609H18.703V14.8203H20.3436Z" fill="#0057FF"/>
<path d="M15.422 21.3828H8.97885L15.422 8.4971V0H0.65625V28H15.422V21.3828ZM7.21885 3.3359H8.85945V4.9766H7.21885V3.3359ZM8.03915 14.8203C6.68215 14.8203 5.57815 13.7163 5.57815 12.3594C5.57815 11.2913 6.26605 10.3893 7.21885 10.0495V8.2578H8.85945V10.0495C9.81215 10.3893 10.5 11.2913 10.5 12.3594H8.85945C8.85945 11.9067 8.49175 11.5391 8.03915 11.5391C7.58665 11.5391 7.21885 11.9067 7.21885 12.3594C7.21885 12.812 7.58665 13.1797 8.03915 13.1797C9.39625 13.1797 10.5 14.2837 10.5 15.6406C10.5 16.7087 9.81215 17.6107 8.85945 17.9505V19.7422H7.21885V17.9505C6.26605 17.6107 5.57815 16.7087 5.57815 15.6406H7.21885C7.21885 16.0933 7.58665 16.4609 8.03915 16.4609C8.49175 16.4609 8.85945 16.0933 8.85945 15.6406C8.85945 15.188 8.49175 14.8203 8.03915 14.8203ZM10.5 24.6641H5.57815V23.0234H10.5V24.6641Z" fill="#0057FF"/>
</svg>
