<svg width="18" height="28" viewBox="0 0 18 28" fill="none" xmlns="http://www.w3.org/2000/svg">
<path d="M8.5714 0C3.8374 0 0 3.8374 0 8.5714C0 13.9694 5.1287 20.1508 5.1287 20.1508H12.3169C12.3169 20.1508 17.1458 13.9694 17.1458 8.5714C17.1427 3.8374 13.3054 0 8.5714 0ZM11.1021 14.4559C10.6705 14.9089 10.0891 15.221 9.4221 15.3648V15.5943C9.4221 15.9921 9.0977 16.3165 8.6999 16.3165H8.3878C7.9899 16.3165 7.6656 15.9921 7.6656 15.5943V15.3495C7.3137 15.273 6.9831 15.1567 6.6771 14.9976C6.2701 14.7895 5.9182 14.4498 5.6275 13.9908C5.4347 13.6879 5.294 13.3329 5.2083 12.9381C5.1655 12.7454 5.2052 12.5526 5.3154 12.3873C5.4256 12.2251 5.6 12.1119 5.7928 12.0783L6.1049 12.0231C6.1447 12.017 6.1875 12.0109 6.2304 12.0109C6.5609 12.0109 6.8485 12.2343 6.9281 12.5556C7.0107 12.88 7.1209 13.1309 7.2555 13.3054C7.5585 13.694 8.0634 13.9266 8.602 13.9266C8.6938 13.9266 8.7856 13.9204 8.8743 13.9051C9.2599 13.847 9.5995 13.6664 9.8383 13.3972C10.0891 13.1126 10.2177 12.7484 10.2177 12.32C10.2177 11.962 10.132 11.6743 9.9637 11.4663C9.6393 11.0684 9.0671 10.897 8.5499 10.7777C7.8675 10.6216 7.2494 10.4656 6.6251 10.1167C6.2089 9.8842 5.8876 9.5598 5.6612 9.1497C5.4378 8.7427 5.3277 8.2807 5.3277 7.7696C5.3277 6.8638 5.6551 6.1172 6.3008 5.551C6.6558 5.242 7.127 5.0186 7.6686 4.9023V4.5504C7.6686 4.1526 7.993 3.8282 8.3908 3.8282H8.703C9.1008 3.8282 9.4252 4.1526 9.4252 4.5504V4.9115C9.927 5.0247 10.3646 5.2297 10.7012 5.5082C11.0868 5.8295 11.3714 6.2396 11.5459 6.7261C11.6192 6.9281 11.5978 7.1484 11.4877 7.3351C11.3776 7.5217 11.1878 7.6472 10.9736 7.6809L10.6706 7.7268C10.6339 7.7329 10.6003 7.736 10.5635 7.736C10.2545 7.736 9.979 7.5401 9.8812 7.2463C9.8138 7.0505 9.7251 6.8883 9.618 6.769C9.3701 6.4905 8.9754 6.3314 8.5378 6.3314C8.0665 6.3314 7.6258 6.5119 7.3565 6.8149C7.1393 7.0597 7.0322 7.3443 7.0322 7.6809C7.0322 8.0144 7.124 8.2929 7.3045 8.5102C7.6962 8.9814 8.3663 9.1161 9.0151 9.2477C9.416 9.3272 9.8291 9.4129 10.1963 9.572C10.588 9.7434 10.9154 9.9607 11.1664 10.2116C11.4203 10.4656 11.6192 10.7716 11.7539 11.1204C11.8885 11.4663 11.9558 11.8427 11.9558 12.2435C11.9497 13.1217 11.6651 13.8654 11.1021 14.4559Z" fill="#0057FF"/>
<path d="M12.1792 21.1637H4.96045V23.0273H12.1792V21.1637Z" fill="#0057FF"/>
<path d="M4.96045 24.4227C4.97885 26.4026 6.58545 28 8.56835 28C10.5513 28 12.161 26.4026 12.1763 24.4227V24.0035H4.96045V24.4227Z" fill="#0057FF"/>
</svg>
