<svg width="44" height="29" viewBox="0 0 44 29" fill="none" xmlns="http://www.w3.org/2000/svg">
<path d="M21.9988 11.7316C25.1468 11.7316 27.6988 9.21459 27.6988 6.10969C27.6988 3.00479 25.1468 0.487793 21.9988 0.487793C18.8508 0.487793 16.2988 3.00479 16.2988 6.10969C16.2988 9.21459 18.8508 11.7316 21.9988 11.7316Z" fill="#0057FF"/>
<path d="M34.7988 11.5838C37.146 11.5838 39.0488 9.70699 39.0488 7.39199C39.0488 5.07689 37.146 3.2002 34.7988 3.2002C32.4516 3.2002 30.5488 5.07689 30.5488 7.39199C30.5488 9.70699 32.4516 11.5838 34.7988 11.5838Z" fill="#0057FF"/>
<path d="M43.2492 21.4961C42.3992 16.2194 39.5992 13.0632 34.7992 13.0632C32.9492 13.0632 31.4492 13.5071 30.1992 14.3947C30.3492 14.5427 30.4992 14.6906 30.6992 14.8386C32.7492 16.9591 34.1492 20.0167 34.7992 23.9125C34.7992 24.0605 34.8492 24.2084 34.8492 24.3071C39.4992 24.3564 43.5992 23.5673 43.2492 21.4961Z" fill="#0057FF"/>
<path d="M9.19922 11.5838C11.5464 11.5838 13.4492 9.70699 13.4492 7.39199C13.4492 5.07689 11.5464 3.2002 9.19922 3.2002C6.85202 3.2002 4.94922 5.07689 4.94922 7.39199C4.94922 9.70699 6.85202 11.5838 9.19922 11.5838Z" fill="#0057FF"/>
<path d="M13.3492 14.8386C13.4992 14.6906 13.6492 14.5427 13.7992 14.3947C12.5492 13.5071 10.9992 13.0632 9.19917 13.0632C4.44917 13.0632 1.64917 16.1701 0.749174 21.4961C0.399174 23.5673 4.54917 24.3564 9.19917 24.3564C9.19917 24.2084 9.19917 24.0605 9.24917 23.9619C9.84917 20.066 11.2492 17.0084 13.3492 14.8386Z" fill="#0057FF"/>
<path d="M21.9996 28.0057C15.7496 28.0057 10.2496 26.9208 10.6996 24.2084C11.8996 17.1071 15.6496 12.9646 21.9996 12.9646C28.3496 12.9646 32.0996 17.1564 33.2996 24.2084C33.7496 26.9208 28.2496 28.0057 21.9996 28.0057Z" fill="#0057FF"/>
</svg>
