<svg width="28" height="28" viewBox="0 0 28 28" fill="none" xmlns="http://www.w3.org/2000/svg">
<path d="M18.5373 9.05882H17.3284C16.699 9.05882 16.3124 8.35463 16.6406 7.80593L21.0735 0.394125C21.3877 -0.131375 22.1346 -0.131375 22.4489 0.394125L26.8818 7.80593C27.21 8.35463 26.8234 9.05882 26.194 9.05882H24.9851V27.1765C24.9851 27.6313 24.6242 28 24.1791 28H19.3433C18.8982 28 18.5373 27.6313 18.5373 27.1765V9.05882ZM15.3134 14V27.1765C15.3134 27.6313 14.9526 28 14.5075 28H9.6716C9.2265 28 8.8657 27.6313 8.8657 27.1765V14C8.8657 13.5452 9.2265 13.1765 9.6716 13.1765H14.5075C14.9526 13.1765 15.3134 13.5452 15.3134 14ZM6.4478 20.5882V27.1765C6.4478 27.6313 6.0869 28 5.6418 28H0.806C0.3608 28 0 27.6313 0 27.1765V20.5882C0 20.1334 0.3608 19.7647 0.806 19.7647H5.6418C6.0869 19.7647 6.4478 20.1334 6.4478 20.5882Z" fill="#0057FF"/>
</svg>
