<svg width="28" height="28" viewBox="0 0 28 28" fill="none" xmlns="http://www.w3.org/2000/svg">
<path d="M3.0971 25.1886C2.7943 24.8857 2.8114 24.0857 3.2 22.9029C3.8629 23.7029 4.6114 24.4229 5.4286 25.0629C4.0171 25.5314 3.3029 25.3886 3.0971 25.1886ZM27.6686 10.9886C26.7086 12.5771 25.52 14.2514 24.12 15.9486C24.8629 16.5886 25.3371 17.5429 25.3371 18.6C25.3371 20.5314 23.7657 22.0971 21.84 22.0971H16.9771C15.0457 22.0971 13.48 20.5257 13.48 18.6V13.7371C13.48 11.8057 15.0514 10.24 16.9771 10.24C17.7886 10.24 18.5429 10.52 19.1371 10.9886C21.8857 7.5371 23.1486 4.8571 23.32 3.6971C23.3257 3.6629 23.3371 3.6286 23.3486 3.5886C23.1543 3.4114 22.9429 3.2514 22.7371 3.0857C24.1714 2.5371 25.1429 2.4743 25.48 2.8114C25.6629 2.9943 25.72 3.44 25.6286 4.0286C25.2971 6.3029 22.8514 10.7029 18.1486 15.6686V13.7371C18.1486 13.0914 17.6286 12.5714 16.9829 12.5714C16.3371 12.5714 15.8171 13.0914 15.8171 13.7371V18.6C15.8171 19.2457 16.3371 19.7657 16.9829 19.7657H21.8457C22.4914 19.7657 23.0114 19.2457 23.0114 18.6C23.0114 17.9543 22.4914 17.4343 21.8457 17.4343H19.6914C24.2686 12.6286 27.4629 7.5886 27.9371 4.3657C28.1886 2.64 27.6343 1.6686 27.1257 1.16C25.7714 -0.1943 23.3086 0.16 20.4171 1.5714C18.4914 0.5714 16.3143 0 14 0C6.28 0 0 6.28 0 14C0 16.3771 0.594301 18.6171 1.6457 20.5771C0.4171 23.2743 0.165701 25.5543 1.4514 26.84C1.92 27.3086 2.6571 27.7086 3.8171 27.7086C4.8229 27.7086 6.1429 27.4 7.8743 26.5886C9.72 27.4914 11.8 28 14 28C21.72 28 28 21.72 28 14C28 12.9657 27.8857 11.96 27.6686 10.9886Z" fill="#0057FF"/>
</svg>
