<?xml version="1.0" encoding="utf-8"?><svg viewBox="0 0 21 22" xmlns="http://www.w3.org/2000/svg" xmlns:xlink="http://www.w3.org/1999/xlink"><style>:root>svg{display:none}:root>svg:target{display:block}</style><svg viewBox="0 0 8 13" id="arrow-slide" xmlns="http://www.w3.org/2000/svg"><path fill-rule="evenodd" clip-rule="evenodd" d="M6.367 12.742L.28 7.123a.835.835 0 010-1.248L6.367.259c.374-.345.98-.345 1.353 0a.835.835 0 010 1.248L2.31 6.5l5.41 4.993a.835.835 0 010 1.248c-.374.345-.98.345-1.353 0z"/></svg><svg viewBox="0 0 16 20" id="bell" xmlns="http://www.w3.org/2000/svg"><path d="M15.579 12.92l-1.22-1.52c-.5-.6-.76-1.36-.76-2.14V7.62c0-2.48-1.62-4.58-3.84-5.3V1.7c0-.66-.54-1.2-1.2-1.2h-1.1c-.66 0-1.2.54-1.2 1.2v.62c-2.24.74-3.86 2.84-3.86 5.32v1.64c0 .78-.26 1.54-.76 2.14l-1.24 1.52c-.72.88-.08 2.26 1.1 2.26h13c1.18 0 1.82-1.38 1.08-2.28zM8 19.5c1.56 0 2.82-1.26 2.82-2.82H5.18c0 1.56 1.26 2.82 2.82 2.82z"/></svg><svg viewBox="0 0 18 19" id="cases" xmlns="http://www.w3.org/2000/svg"><path fill-rule="evenodd" clip-rule="evenodd" d="M4.904 16.86V1.424a.34.34 0 01.346-.335h2.596a.34.34 0 01.346.335V16.86a.34.34 0 01-.346.336H5.25a.34.34 0 01-.346-.336zM0 16.86v-4.698a.34.34 0 01.346-.336h2.596a.34.34 0 01.346.336v4.697a.34.34 0 01-.346.336H.346A.34.34 0 010 16.859zm9.808 0V9.477c0-.185.155-.336.346-.336h2.596a.34.34 0 01.346.336v7.381a.341.341 0 01-.346.336h-2.596a.34.34 0 01-.346-.336zm4.903 0V6.793c0-.186.155-.336.347-.336h2.596a.34.34 0 01.346.336v10.065a.341.341 0 01-.346.336h-2.596a.341.341 0 01-.347-.336z"/><path fill-rule="evenodd" clip-rule="evenodd" d="M4.904 16.86V1.424a.34.34 0 01.346-.335h2.596a.34.34 0 01.346.335V16.86a.34.34 0 01-.346.336H5.25a.34.34 0 01-.346-.336zM0 16.86v-4.698a.34.34 0 01.346-.336h2.596a.34.34 0 01.346.336v4.697a.34.34 0 01-.346.336H.346A.34.34 0 010 16.859zm9.808 0V9.477c0-.185.155-.336.346-.336h2.596a.34.34 0 01.346.336v7.381a.341.341 0 01-.346.336h-2.596a.34.34 0 01-.346-.336zm4.903 0V6.793c0-.186.155-.336.347-.336h2.596a.34.34 0 01.346.336v10.065a.341.341 0 01-.346.336h-2.596a.341.341 0 01-.347-.336z"/><mask id="ca"><rect x="6" y=".385" width="12" height="12" rx="1"/></mask><rect x="6" y=".385" width="12" height="12" rx="1" mask="url(#ca)"/><rect y="6.385" width="12" height="12" rx="1"/></svg><svg viewBox="0 0 18 16" id="column-chart" xmlns="http://www.w3.org/2000/svg"><path fill-rule="evenodd" clip-rule="evenodd" d="M4.904 15.667V.333A.34.34 0 015.25 0h2.596a.34.34 0 01.346.333v15.334a.34.34 0 01-.346.333H5.25a.34.34 0 01-.346-.333zm-4.904 0V11a.34.34 0 01.346-.333h2.596a.34.34 0 01.346.333v4.667a.34.34 0 01-.346.333H.346A.34.34 0 010 15.667zm9.808 0V8.333A.34.34 0 0110.154 8h2.596a.34.34 0 01.346.333v7.334a.34.34 0 01-.346.333h-2.596a.34.34 0 01-.346-.333zm4.903 0v-10a.34.34 0 01.347-.334h2.596a.34.34 0 01.346.334v10a.34.34 0 01-.346.333h-2.596a.34.34 0 01-.347-.333z"/></svg><svg viewBox="0 0 20 17" id="column-window" xmlns="http://www.w3.org/2000/svg"><path d="M18.938.048H1.063a.554.554 0 00-.547.57V15.61c0 .32.24.57.547.57H18.96c.307 0 .548-.25.548-.57V.618c-.022-.32-.263-.57-.57-.57zm-2.235 1.048c.438-.228.986-.023 1.205.433a.966.966 0 01-.416 1.253c-.438.228-.986.023-1.205-.433-.197-.478-.022-1.048.416-1.253zm-2.935 0c.438-.228.986-.023 1.205.433a.966.966 0 01-.416 1.253c-.439.228-.986.023-1.205-.433-.22-.478-.044-1.048.416-1.253zm-2.957 0c.438-.228.986-.023 1.205.433a.966.966 0 01-.417 1.253c-.438.228-.985.023-1.204-.433-.22-.478-.022-1.048.416-1.253zM18.39 15.04H1.61V4.035h16.802V15.04h-.022z"/><path d="M7.065 8.706H4.59v5.65h2.475v-5.65zm4.162-1.8H8.752v7.428h2.475V6.906zM15.41 4.81h-2.475v9.524h2.476V4.81z"/></svg><svg viewBox="0 0 20 20" id="facebook" xmlns="http://www.w3.org/2000/svg"><path d="M20 10c0-5.522-4.478-10-10-10S0 4.478 0 10s4.478 10 10 10l.176-.002v-7.785H8.027V9.71h2.149V7.867c0-2.137 1.304-3.3 3.21-3.3.913 0 1.698.068 1.927.098V6.9h-1.315c-1.037 0-1.238.493-1.238 1.216V9.71h2.48l-.323 2.504H12.76v7.4C16.94 18.416 20 14.566 20 10z"/></svg><svg viewBox="0 0 21 22" id="layers" xmlns="http://www.w3.org/2000/svg"><path fill-rule="evenodd" clip-rule="evenodd" d="M11.063 1.147l8.636 4.067c.45.222.45.887 0 1.109l-8.637 4.067a1.485 1.485 0 01-1.126 0L1.375 6.323c-.526-.222-.526-.887 0-1.11l8.561-4.066c.376-.222.751-.222 1.127 0z"/><path fill-rule="evenodd" clip-rule="evenodd" d="M17.671 7.95l2.028.962c.45.222.45.887 0 1.11l-8.637 4.066a1.485 1.485 0 01-1.126 0l-8.561-4.067c-.526-.222-.526-.887 0-1.11l2.027-.96 6.309 2.957a1.649 1.649 0 001.652 0l6.308-2.957z"/><path fill-rule="evenodd" clip-rule="evenodd" d="M17.671 11.648l2.028.961c.45.222.45.887 0 1.11l-8.637 4.066c-.375.222-.75.222-1.126 0l-8.561-4.067c-.526-.222-.526-.887 0-1.109l2.027-.961 6.309 3.032a2.133 2.133 0 001.652 0l6.308-3.032z"/><path fill-rule="evenodd" clip-rule="evenodd" d="M17.671 15.419l2.028.887c.45.296.45.961 0 1.183l-8.637 4.067a1.485 1.485 0 01-1.126 0L1.375 17.49c-.526-.222-.526-.887 0-1.183l2.027-.887 6.309 2.958a2.134 2.134 0 001.652 0l6.308-2.958z"/></svg><svg viewBox="0 0 20 20" id="twitter" xmlns="http://www.w3.org/2000/svg"><path d="M10 0C4.478 0 0 4.478 0 10s4.478 10 10 10 10-4.478 10-10S15.522 0 10 0zm4.566 7.797c.004.098.006.197.006.297 0 3.033-2.308 6.53-6.53 6.53a6.497 6.497 0 01-3.518-1.03c.18.02.362.03.547.03a4.605 4.605 0 002.85-.982 2.298 2.298 0 01-2.143-1.594 2.28 2.28 0 001.036-.04 2.296 2.296 0 01-1.84-2.278c.308.172.662.275 1.039.287a2.293 2.293 0 01-.71-3.065 6.517 6.517 0 004.73 2.399 2.296 2.296 0 013.911-2.093 4.604 4.604 0 001.458-.558 2.305 2.305 0 01-1.01 1.27 4.579 4.579 0 001.319-.362c-.307.46-.697.865-1.145 1.189z"/></svg><svg viewBox="0 0 11 21" id="up-down" xmlns="http://www.w3.org/2000/svg"><path fill-rule="evenodd" clip-rule="evenodd" d="M9.836 11.342c.547 0 .76.378.478.842l-4.582 7.522c-.283.465-.743.464-1.025 0L.125 12.184c-.283-.465-.07-.842.478-.842h9.233zM.603 8.712c-.547 0-.76-.378-.478-.841L4.707.348c.283-.465.743-.463 1.025 0l4.582 7.523c.283.464.07.841-.478.841H.603z"/></svg><svg viewBox="0 0 20 20" id="youtube" xmlns="http://www.w3.org/2000/svg"><path d="M8.754 11.874L12.007 10 8.754 8.127v3.747z"/><path d="M10 0C4.478 0 0 4.478 0 10s4.478 10 10 10 10-4.478 10-10S15.522 0 10 0zm6.248 10.01s0 2.028-.257 3.006a1.566 1.566 0 01-1.101 1.102c-.978.257-4.89.257-4.89.257s-3.902 0-4.89-.268a1.566 1.566 0 01-1.101-1.101C3.75 12.038 3.75 10 3.75 10s0-2.028.258-3.006A1.598 1.598 0 015.11 5.882c.978-.257 4.89-.257 4.89-.257s3.912 0 4.89.268c.535.144.957.566 1.101 1.101.268.978.258 3.016.258 3.016z"/></svg></svg>