<?xml version="1.0" encoding="utf-8"?><svg viewBox="0 0 61 89" xmlns="http://www.w3.org/2000/svg" xmlns:xlink="http://www.w3.org/1999/xlink"><style>:root>svg{display:none}:root>svg:target{display:block}</style><svg viewBox="0 0 8 13" id="arrow-slide" xmlns="http://www.w3.org/2000/svg"><path fill-rule="evenodd" clip-rule="evenodd" d="M6.367 12.742L.28 7.123a.835.835 0 010-1.248L6.367.259c.374-.345.98-.345 1.353 0a.835.835 0 010 1.248L2.31 6.5l5.41 4.993a.835.835 0 010 1.248c-.374.345-.98.345-1.353 0z"/></svg><svg viewBox="0 0 16 20" id="bell" xmlns="http://www.w3.org/2000/svg"><path d="M15.579 12.92l-1.22-1.52c-.5-.6-.76-1.36-.76-2.14V7.62c0-2.48-1.62-4.58-3.84-5.3V1.7c0-.66-.54-1.2-1.2-1.2h-1.1c-.66 0-1.2.54-1.2 1.2v.62c-2.24.74-3.86 2.84-3.86 5.32v1.64c0 .78-.26 1.54-.76 2.14l-1.24 1.52c-.72.88-.08 2.26 1.1 2.26h13c1.18 0 1.82-1.38 1.08-2.28zM8 19.5c1.56 0 2.82-1.26 2.82-2.82H5.18c0 1.56 1.26 2.82 2.82 2.82z"/></svg><svg viewBox="0 0 18 19" id="cases" xmlns="http://www.w3.org/2000/svg"><path fill-rule="evenodd" clip-rule="evenodd" d="M4.904 16.86V1.424a.34.34 0 01.346-.335h2.596a.34.34 0 01.346.335V16.86a.34.34 0 01-.346.336H5.25a.34.34 0 01-.346-.336zM0 16.86v-4.698a.34.34 0 01.346-.336h2.596a.34.34 0 01.346.336v4.697a.34.34 0 01-.346.336H.346A.34.34 0 010 16.859zm9.808 0V9.477c0-.185.155-.336.346-.336h2.596a.34.34 0 01.346.336v7.381a.341.341 0 01-.346.336h-2.596a.34.34 0 01-.346-.336zm4.903 0V6.793c0-.186.155-.336.347-.336h2.596a.34.34 0 01.346.336v10.065a.341.341 0 01-.346.336h-2.596a.341.341 0 01-.347-.336z"/><path fill-rule="evenodd" clip-rule="evenodd" d="M4.904 16.86V1.424a.34.34 0 01.346-.335h2.596a.34.34 0 01.346.335V16.86a.34.34 0 01-.346.336H5.25a.34.34 0 01-.346-.336zM0 16.86v-4.698a.34.34 0 01.346-.336h2.596a.34.34 0 01.346.336v4.697a.34.34 0 01-.346.336H.346A.34.34 0 010 16.859zm9.808 0V9.477c0-.185.155-.336.346-.336h2.596a.34.34 0 01.346.336v7.381a.341.341 0 01-.346.336h-2.596a.34.34 0 01-.346-.336zm4.903 0V6.793c0-.186.155-.336.347-.336h2.596a.34.34 0 01.346.336v10.065a.341.341 0 01-.346.336h-2.596a.341.341 0 01-.347-.336z"/><mask id="ca"><rect x="6" y=".385" width="12" height="12" rx="1"/></mask><rect x="6" y=".385" width="12" height="12" rx="1" mask="url(#ca)"/><rect y="6.385" width="12" height="12" rx="1"/></svg><svg viewBox="0 0 32 35" id="clock" xmlns="http://www.w3.org/2000/svg"><path fill-rule="evenodd" clip-rule="evenodd" d="M6.668 15.169c2.09-5.28 8.19-7.913 13.625-5.883 5.434 2.03 8.145 7.957 6.055 13.236-2.09 5.279-8.19 7.913-13.625 5.882-5.434-2.03-8.145-7.956-6.055-13.235zm25.221 9.423c.512-1.292-1.462-2.129-2.075-.828l-.02.046c-2.874 7.156-11.002 10.665-18.396 7.943C4.03 28.96.418 21.065 3.221 13.88c2.593-6.452 9.454-9.94 16.2-8.566l-3.45.844 4.843 1.81 6.051-1.243L23.23 1.87 18.387.059l2.266 3.297C12.608 1.33 4.218 5.388 1.127 13.1c-3.248 8.306.943 17.464 9.465 20.688 8.55 3.154 17.978-.916 21.297-9.195zm-16.004-4.419a1.092 1.092 0 01-.72-1.014l-.652-6.554c-.059-.596.392-1.127 1.005-1.185.614-.057 1.16.38 1.22.976l.595 5.983 3.806 1.421c.578.217.866.848.644 1.41a1.133 1.133 0 01-1.45.625l-4.448-1.662z"/></svg><svg viewBox="0 0 18 16" id="column-chart" xmlns="http://www.w3.org/2000/svg"><path fill-rule="evenodd" clip-rule="evenodd" d="M4.904 15.667V.333A.34.34 0 015.25 0h2.596a.34.34 0 01.346.333v15.334a.34.34 0 01-.346.333H5.25a.34.34 0 01-.346-.333zm-4.904 0V11a.34.34 0 01.346-.333h2.596a.34.34 0 01.346.333v4.667a.34.34 0 01-.346.333H.346A.34.34 0 010 15.667zm9.808 0V8.333A.34.34 0 0110.154 8h2.596a.34.34 0 01.346.333v7.334a.34.34 0 01-.346.333h-2.596a.34.34 0 01-.346-.333zm4.903 0v-10a.34.34 0 01.347-.334h2.596a.34.34 0 01.346.334v10a.34.34 0 01-.346.333h-2.596a.34.34 0 01-.347-.333z"/></svg><svg viewBox="0 0 20 17" id="column-window" xmlns="http://www.w3.org/2000/svg"><path d="M18.938.048H1.063a.554.554 0 00-.547.57V15.61c0 .32.24.57.547.57H18.96c.307 0 .548-.25.548-.57V.618c-.022-.32-.263-.57-.57-.57zm-2.235 1.048c.438-.228.986-.023 1.205.433a.966.966 0 01-.416 1.253c-.438.228-.986.023-1.205-.433-.197-.478-.022-1.048.416-1.253zm-2.935 0c.438-.228.986-.023 1.205.433a.966.966 0 01-.416 1.253c-.439.228-.986.023-1.205-.433-.22-.478-.044-1.048.416-1.253zm-2.957 0c.438-.228.986-.023 1.205.433a.966.966 0 01-.417 1.253c-.438.228-.985.023-1.204-.433-.22-.478-.022-1.048.416-1.253zM18.39 15.04H1.61V4.035h16.802V15.04h-.022z"/><path d="M7.065 8.706H4.59v5.65h2.475v-5.65zm4.162-1.8H8.752v7.428h2.475V6.906zM15.41 4.81h-2.475v9.524h2.476V4.81z"/></svg><svg viewBox="0 0 41 26" id="double-coin" xmlns="http://www.w3.org/2000/svg"><path d="M21.295 7.205v3.19c0 1.655 4.072 3.51 9.522 3.51s9.523-1.855 9.523-3.51v-3.19c-1.94 1.456-5.4 2.391-9.523 2.391-4.123 0-7.58-.935-9.522-2.391zm0 11.99v3.19c0 1.66 4.072 3.512 9.522 3.512s9.523-1.853 9.523-3.512v-3.19c-1.94 1.458-5.4 2.392-9.523 2.392-4.123 0-7.58-.934-9.522-2.391zm-21.022.002v3.19c0 1.655 4.071 3.51 9.521 3.51 5.45 0 9.524-1.854 9.524-3.51v-3.19c-1.941 1.456-5.401 2.392-9.524 2.392-4.122 0-7.58-.936-9.521-2.392zm9.521-6.318c-5.45 0-9.521 1.854-9.521 3.51 0 1.66 4.071 3.512 9.521 3.512 5.45 0 9.524-1.852 9.524-3.511-.001-1.657-4.074-3.51-9.524-3.51zm11.501.32v3.19c0 1.659 4.072 3.512 9.522 3.512s9.523-1.854 9.523-3.511V13.2c-1.94 1.457-5.4 2.392-9.523 2.392-4.123 0-7.58-.935-9.522-2.393zM30.817.887c-5.45 0-9.522 1.854-9.522 3.51 0 1.66 4.072 3.513 9.522 3.513s9.523-1.853 9.523-3.512c0-1.657-4.073-3.51-9.523-3.51z"/></svg><svg viewBox="0 0 20 20" id="facebook" xmlns="http://www.w3.org/2000/svg"><path d="M20 10c0-5.522-4.478-10-10-10S0 4.478 0 10s4.478 10 10 10l.176-.002v-7.785H8.027V9.71h2.149V7.867c0-2.137 1.304-3.3 3.21-3.3.913 0 1.698.068 1.927.098V6.9h-1.315c-1.037 0-1.238.493-1.238 1.216V9.71h2.48l-.323 2.504H12.76v7.4C16.94 18.416 20 14.566 20 10z"/></svg><svg viewBox="0 0 61 89" id="faq-icon" xmlns="http://www.w3.org/2000/svg"><g opacity=".2" clip-path="url(#ia)"><path d="M0 0h9.61v4.81h-4.8v4.8H0V0zm25.36 0h9.61v4.81h-4.81v4.8h-4.8V0zm25.35 0h9.61v4.81h-4.8v4.8h-4.81V0zM0 26.16h9.61v4.8h-4.8v4.81H0v-9.61zm25.36 0h9.61v4.8h-4.81v4.81h-4.8v-9.61zm25.35 0h9.61v4.8h-4.8v4.81h-4.81v-9.61zM0 52.31h9.61v4.81h-4.8v4.8H0v-9.61zm25.36 0h9.61v4.81h-4.81v4.8h-4.8v-9.61zm25.35 0h9.61v4.81h-4.8v4.8h-4.81v-9.61zM0 78.47h9.61v4.8h-4.8v4.81H0v-9.61zm25.36 0h9.61v4.8h-4.81v4.81h-4.8v-9.61zm25.35 0h9.61v4.8h-4.8v4.81h-4.81v-9.61z"/></g><defs><clipPath id="ia"><path d="M0 0h60.32v88.08H0z"/></clipPath></defs></svg><svg viewBox="0 0 36 22" id="handshake" xmlns="http://www.w3.org/2000/svg"><path fill-rule="evenodd" clip-rule="evenodd" d="M19.62 0h4.832c.478 0 .94.195 1.271.538l3.071 3.127v11.082a4.08 4.08 0 00-.444-.44l-8.19-6.77 1.468-1.369a.927.927 0 00.056-1.294.893.893 0 00-1.27-.058L15.918 9.01c-.003.003-.007.004-.011.005-.005.002-.009.003-.012.006-.94.854-2.441.642-3.155-.154a2.307 2.307 0 01.118-3.208.075.075 0 00.008-.011.075.075 0 01.009-.011L18.405.48C18.737.171 19.17 0 19.62 0zM30.6 16.5V3.677H36v14.655h-3.6c-.996 0-1.8-.819-1.8-1.832zm2.7 0a.911.911 0 01-.9-.917.91.91 0 01.9-.916c.495 0 .9.412.9.916a.911.911 0 01-.9.917zM3.6 18.327H0V3.677h5.4v12.817c0 1.014-.804 1.833-1.8 1.833zm-.9-3.66c.495 0 .9.412.9.916a.911.911 0 01-.9.917.911.911 0 01-.9-.917c0-.51.405-.916.9-.916zm16.121-5.876l8.398 6.941c.771.642.89 1.793.26 2.583l-.535.67c-.625.79-1.76.905-2.531.27l-.304-.252-1.767 2.21a2.065 2.065 0 01-2.941.31l-1.007-.888-.011.011a3.556 3.556 0 01-5.063.533l-5.09-4.69H7.2V3.664L10.277.538A1.78 1.78 0 0111.548 0h4.714L11.66 4.29c-1.643 1.534-1.761 4.14-.248 5.824a4.005 4.005 0 005.72.252l1.688-1.575z"/></svg><svg viewBox="0 0 21 22" id="layers" xmlns="http://www.w3.org/2000/svg"><path fill-rule="evenodd" clip-rule="evenodd" d="M11.063 1.147l8.636 4.067c.45.222.45.887 0 1.109l-8.637 4.067a1.485 1.485 0 01-1.126 0L1.375 6.323c-.526-.222-.526-.887 0-1.11l8.561-4.066c.376-.222.751-.222 1.127 0z"/><path fill-rule="evenodd" clip-rule="evenodd" d="M17.671 7.95l2.028.962c.45.222.45.887 0 1.11l-8.637 4.066a1.485 1.485 0 01-1.126 0l-8.561-4.067c-.526-.222-.526-.887 0-1.11l2.027-.96 6.309 2.957a1.649 1.649 0 001.652 0l6.308-2.957z"/><path fill-rule="evenodd" clip-rule="evenodd" d="M17.671 11.648l2.028.961c.45.222.45.887 0 1.11l-8.637 4.066c-.375.222-.75.222-1.126 0l-8.561-4.067c-.526-.222-.526-.887 0-1.109l2.027-.961 6.309 3.032a2.133 2.133 0 001.652 0l6.308-3.032z"/><path fill-rule="evenodd" clip-rule="evenodd" d="M17.671 15.419l2.028.887c.45.296.45.961 0 1.183l-8.637 4.067a1.485 1.485 0 01-1.126 0L1.375 17.49c-.526-.222-.526-.887 0-1.183l2.027-.887 6.309 2.958a2.134 2.134 0 001.652 0l6.308-2.958z"/></svg><svg viewBox="0 0 28 28" id="risks" xmlns="http://www.w3.org/2000/svg"><path d="M27.413 19.742l-7.89-15.78-7.89 15.78h15.78zm-8.71-9.844h1.64v3.282h-1.64V9.898zm1.64 4.922v1.64h-1.64v-1.64h1.64z"/><path d="M15.422 21.383H8.979l6.443-12.886V0H.656v28h14.766v-6.617zM7.219 3.336h1.64v1.64H7.22v-1.64zm.82 11.484a2.464 2.464 0 01-2.46-2.46c0-1.069.687-1.97 1.64-2.31V8.258h1.64v1.792a2.457 2.457 0 011.641 2.31H8.86a.82.82 0 10-.82.82 2.464 2.464 0 012.46 2.46c0 1.069-.688 1.97-1.64 2.31v1.792H7.218v-1.791a2.457 2.457 0 01-1.64-2.31h1.64a.82.82 0 10.82-.82zm2.461 9.844H5.578v-1.64H10.5v1.64z"/></svg><svg viewBox="0 0 32 36" id="robot" xmlns="http://www.w3.org/2000/svg"><path fill-rule="evenodd" clip-rule="evenodd" d="M5.536 15.75H4.57a1.137 1.137 0 01-1.142-1.125v-6.75c0-.619.514-1.125 1.142-1.125h.965C7.3 2.777 11.314 0 16 0s8.7 2.777 10.464 6.75h.965c.628 0 1.142.506 1.142 1.125v6.75c0 .619-.514 1.125-1.142 1.125h-.965C24.7 19.723 20.686 22.5 16 22.5c-4.686 0-8.7-2.777-10.464-6.75zm5.321-9c-1.893 0-3.428 1.259-3.428 2.813v1.687c0 3.727 3.071 6.75 6.857 6.75h3.428c3.786 0 6.857-3.023 6.857-6.75V9.562c0-1.553-1.535-2.812-3.428-2.812H10.857zm1.715 7.875l.857-2.531L16 11.25l-2.571-.844-.857-2.531-.858 2.531-2.571.844 2.571.844.857 2.531zM16 24.75c2.729 0 5.264-.795 7.4-2.152 4.821.5 8.6 4.472 8.6 9.352v.675C32 34.488 30.464 36 28.571 36h-5.714v-4.5c0-1.245-1.021-2.25-2.286-2.25H11.43c-1.265 0-2.286 1.005-2.286 2.25V36H3.429C1.536 36 0 34.488 0 32.625v-.675c0-4.88 3.779-8.852 8.6-9.352A13.751 13.751 0 0016 24.75zm3.429 6.75c-.629 0-1.143.506-1.143 1.125s.514 1.125 1.143 1.125c.628 0 1.142-.506 1.142-1.125S20.057 31.5 19.43 31.5zm-8 1.125c0-.619.514-1.125 1.142-1.125.629 0 1.143.506 1.143 1.125V36H11.43v-3.375z"/></svg><svg viewBox="0 0 18 28" id="subscribe" xmlns="http://www.w3.org/2000/svg"><path d="M8.571 0A8.571 8.571 0 000 8.571c0 5.398 5.129 11.58 5.129 11.58h7.188s4.829-6.182 4.829-11.58A8.576 8.576 0 008.57 0zm2.531 14.456c-.431.453-1.013.765-1.68.909v.23a.724.724 0 01-.722.722h-.312a.723.723 0 01-.722-.723v-.244a3.954 3.954 0 01-.989-.352c-.407-.208-.759-.548-1.05-1.007a3.228 3.228 0 01-.419-1.053.704.704 0 01.107-.55.734.734 0 01.478-.31l.312-.055a.717.717 0 01.823.533c.083.324.193.575.327.75.304.388.808.62 1.347.62.092 0 .184-.006.272-.02.386-.059.726-.24.964-.509.251-.284.38-.649.38-1.077 0-.358-.086-.646-.254-.854-.325-.398-.897-.569-1.414-.688-.683-.156-1.3-.312-1.925-.661a2.44 2.44 0 01-.964-.967 2.825 2.825 0 01-.333-1.38c0-.906.327-1.653.973-2.219.355-.309.826-.532 1.368-.649V4.55c0-.397.324-.722.722-.722h.312c.398 0 .722.325.722.722v.362c.502.113.94.318 1.276.596.386.322.67.732.845 1.218a.712.712 0 01-.058.61.726.726 0 01-.514.345l-.303.046a.718.718 0 01-.79-.48 1.389 1.389 0 00-.263-.478c-.248-.279-.643-.438-1.08-.438-.472 0-.912.18-1.182.484-.217.245-.324.53-.324.866 0 .333.092.612.272.83.392.47 1.062.605 1.711.737.401.08.814.165 1.181.324.392.171.72.389.97.64.254.254.453.56.588.908.135.346.202.723.202 1.123-.006.879-.29 1.622-.854 2.213zm1.078 6.708H4.96v1.863h7.22v-1.863zm-7.22 3.259a3.608 3.608 0 007.216 0v-.42H4.96v.42z"/></svg><svg viewBox="0 0 44 29" id="team" xmlns="http://www.w3.org/2000/svg"><path d="M21.999 11.732c3.148 0 5.7-2.517 5.7-5.622S25.147.488 21.999.488s-5.7 2.517-5.7 5.622 2.552 5.622 5.7 5.622zm12.8-.148c2.347 0 4.25-1.877 4.25-4.192 0-2.315-1.903-4.192-4.25-4.192s-4.25 1.877-4.25 4.192c0 2.315 1.903 4.192 4.25 4.192zm8.451 9.912c-.85-5.277-3.65-8.433-8.45-8.433-1.85 0-3.35.444-4.6 1.332.15.148.3.296.5.444 2.05 2.12 3.45 5.178 4.1 9.074 0 .148.05.295.05.394 4.65.05 8.75-.74 8.4-2.81zM9.2 11.584c2.346 0 4.25-1.877 4.25-4.192 0-2.315-1.904-4.192-4.25-4.192-2.348 0-4.25 1.877-4.25 4.192 0 2.315 1.902 4.192 4.25 4.192zm4.15 3.255l.45-.444c-1.25-.888-2.8-1.332-4.6-1.332-4.75 0-7.55 3.107-8.45 8.433-.35 2.071 3.8 2.86 8.45 2.86 0-.148 0-.296.05-.394.6-3.896 2-6.954 4.1-9.123zM22 28.006c-6.25 0-11.75-1.085-11.3-3.798 1.2-7.1 4.95-11.243 11.3-11.243 6.35 0 10.1 4.191 11.3 11.243.45 2.713-5.05 3.798-11.3 3.798z"/></svg><svg viewBox="0 0 20 20" id="twitter" xmlns="http://www.w3.org/2000/svg"><path d="M10 0C4.478 0 0 4.478 0 10s4.478 10 10 10 10-4.478 10-10S15.522 0 10 0zm4.566 7.797c.004.098.006.197.006.297 0 3.033-2.308 6.53-6.53 6.53a6.497 6.497 0 01-3.518-1.03c.18.02.362.03.547.03a4.605 4.605 0 002.85-.982 2.298 2.298 0 01-2.143-1.594 2.28 2.28 0 001.036-.04 2.296 2.296 0 01-1.84-2.278c.308.172.662.275 1.039.287a2.293 2.293 0 01-.71-3.065 6.517 6.517 0 004.73 2.399 2.296 2.296 0 013.911-2.093 4.604 4.604 0 001.458-.558 2.305 2.305 0 01-1.01 1.27 4.579 4.579 0 001.319-.362c-.307.46-.697.865-1.145 1.189z"/></svg><svg viewBox="0 0 11 21" id="up-down" xmlns="http://www.w3.org/2000/svg"><path fill-rule="evenodd" clip-rule="evenodd" d="M9.836 11.342c.547 0 .76.378.478.842l-4.582 7.522c-.283.465-.743.464-1.025 0L.125 12.184c-.283-.465-.07-.842.478-.842h9.233zM.603 8.712c-.547 0-.76-.378-.478-.841L4.707.348c.283-.465.743-.463 1.025 0l4.582 7.523c.283.464.07.841-.478.841H.603z"/></svg><svg viewBox="0 0 28 28" id="up-gram" xmlns="http://www.w3.org/2000/svg"><path d="M18.537 9.059h-1.209c-.629 0-1.016-.704-.687-1.253L21.074.394a.797.797 0 011.375 0l4.433 7.412c.328.549-.059 1.253-.688 1.253h-1.209v18.117c0 .455-.36.824-.806.824h-4.836a.815.815 0 01-.806-.823V9.059zM15.313 14v13.177c0 .454-.36.823-.806.823H9.672a.815.815 0 01-.806-.823V14c0-.455.36-.823.806-.823h4.835c.446 0 .806.368.806.823zm-8.865 6.588v6.588a.815.815 0 01-.806.824H.806A.815.815 0 010 27.177v-6.589c0-.455.36-.823.806-.823h4.836c.445 0 .806.368.806.823z"/></svg><svg viewBox="0 0 28 28" id="worldwide" xmlns="http://www.w3.org/2000/svg"><path d="M3.097 25.189c-.303-.303-.286-1.103.103-2.286.663.8 1.411 1.52 2.229 2.16-1.412.468-2.126.326-2.332.126zm24.572-14.2a42.065 42.065 0 01-3.549 4.96 3.5 3.5 0 011.217 2.651 3.5 3.5 0 01-3.497 3.497h-4.863A3.5 3.5 0 0113.48 18.6v-4.863a3.5 3.5 0 013.497-3.497c.812 0 1.566.28 2.16.749 2.749-3.452 4.012-6.132 4.183-7.292.006-.034.017-.068.029-.108-.195-.178-.406-.338-.612-.503 1.434-.549 2.406-.612 2.743-.275.183.183.24.629.149 1.218-.332 2.274-2.778 6.674-7.48 11.64v-1.932c0-.646-.52-1.166-1.166-1.166-.646 0-1.166.52-1.166 1.166V18.6c0 .646.52 1.166 1.166 1.166h4.863c.645 0 1.165-.52 1.165-1.166 0-.646-.52-1.166-1.165-1.166H19.69c4.578-4.805 7.772-9.845 8.246-13.068.252-1.726-.303-2.697-.811-3.206-1.355-1.354-3.817-1-6.709.411A13.874 13.874 0 0014 0C6.28 0 0 6.28 0 14c0 2.377.594 4.617 1.646 6.577-1.229 2.697-1.48 4.977-.195 6.263.469.469 1.206.869 2.366.869 1.006 0 2.326-.309 4.057-1.12A13.907 13.907 0 0014 28c7.72 0 14-6.28 14-14 0-1.034-.114-2.04-.331-3.011z"/></svg><svg viewBox="0 0 20 20" id="youtube" xmlns="http://www.w3.org/2000/svg"><path d="M8.754 11.874L12.007 10 8.754 8.127v3.747z"/><path d="M10 0C4.478 0 0 4.478 0 10s4.478 10 10 10 10-4.478 10-10S15.522 0 10 0zm6.248 10.01s0 2.028-.257 3.006a1.566 1.566 0 01-1.101 1.102c-.978.257-4.89.257-4.89.257s-3.902 0-4.89-.268a1.566 1.566 0 01-1.101-1.101C3.75 12.038 3.75 10 3.75 10s0-2.028.258-3.006A1.598 1.598 0 015.11 5.882c.978-.257 4.89-.257 4.89-.257s3.912 0 4.89.268c.535.144.957.566 1.101 1.101.268.978.258 3.016.258 3.016z"/></svg></svg>