<svg width="18" height="19" viewBox="0 0 18 19" fill="none" xmlns="http://www.w3.org/2000/svg">
<path fill-rule="evenodd" clip-rule="evenodd" d="M4.90385 16.8593V1.42536C4.90385 1.24006 5.05882 1.08984 5.25 1.08984H7.84615C8.03733 1.08984 8.19231 1.24006 8.19231 1.42536V16.8593C8.19231 17.0446 8.03733 17.1948 7.84615 17.1948H5.25C5.05882 17.1948 4.90385 17.0446 4.90385 16.8593ZM0 16.8593V12.162C0 11.9767 0.154978 11.8265 0.346154 11.8265H2.94231C3.13348 11.8265 3.28846 11.9767 3.28846 12.162V16.8593C3.28846 17.0446 3.13348 17.1948 2.94231 17.1948H0.346154C0.154978 17.1948 0 17.0446 0 16.8593ZM9.80769 16.8593V9.47786C9.80769 9.29256 9.96267 9.14234 10.1538 9.14234H12.75C12.9412 9.14234 13.0962 9.29256 13.0962 9.47786V16.8593C13.0962 17.0446 12.9412 17.1948 12.75 17.1948H10.1538C9.96267 17.1948 9.80769 17.0446 9.80769 16.8593ZM14.7115 16.8593V6.7937C14.7115 6.60839 14.8665 6.45818 15.0577 6.45818H17.6538C17.845 6.45818 18 6.60839 18 6.7937V16.8593C18 17.0446 17.845 17.1948 17.6538 17.1948H15.0577C14.8665 17.1948 14.7115 17.0446 14.7115 16.8593Z" fill="white"/>
<path fill-rule="evenodd" clip-rule="evenodd" d="M4.90385 16.8593V1.42536C4.90385 1.24006 5.05882 1.08984 5.25 1.08984H7.84615C8.03733 1.08984 8.19231 1.24006 8.19231 1.42536V16.8593C8.19231 17.0446 8.03733 17.1948 7.84615 17.1948H5.25C5.05882 17.1948 4.90385 17.0446 4.90385 16.8593ZM0 16.8593V12.162C0 11.9767 0.154978 11.8265 0.346154 11.8265H2.94231C3.13348 11.8265 3.28846 11.9767 3.28846 12.162V16.8593C3.28846 17.0446 3.13348 17.1948 2.94231 17.1948H0.346154C0.154978 17.1948 0 17.0446 0 16.8593ZM9.80769 16.8593V9.47786C9.80769 9.29256 9.96267 9.14234 10.1538 9.14234H12.75C12.9412 9.14234 13.0962 9.29256 13.0962 9.47786V16.8593C13.0962 17.0446 12.9412 17.1948 12.75 17.1948H10.1538C9.96267 17.1948 9.80769 17.0446 9.80769 16.8593ZM14.7115 16.8593V6.7937C14.7115 6.60839 14.8665 6.45818 15.0577 6.45818H17.6538C17.845 6.45818 18 6.60839 18 6.7937V16.8593C18 17.0446 17.845 17.1948 17.6538 17.1948H15.0577C14.8665 17.1948 14.7115 17.0446 14.7115 16.8593Z" fill="#0057FF"/>
<mask id="path-2-inside-1_768_70" fill="white">
<rect x="6" y="0.384766" width="12" height="12" rx="1"/>
</mask>
<rect x="6" y="0.384766" width="12" height="12" rx="1" stroke="#E1EAFA" stroke-width="12" mask="url(#path-2-inside-1_768_70)"/>
<rect y="6.38477" width="12" height="12" rx="1" fill="#0057FF"/>
</svg>
