<?xml version="1.0" encoding="utf-8"?>
<!-- Generator: Adobe Illustrator 23.0.0, SVG Export Plug-In . SVG Version: 6.00 Build 0)  -->
<svg version="1.1" id="Слой_1" opacity="0.5" xmlns="http://www.w3.org/2000/svg" xmlns:xlink="http://www.w3.org/1999/xlink"
	 x="0px" y="0px" width="121px" height="40px" viewBox="0 0 121 40" style="enable-background:new 0 0 121 40;"
	 xml:space="preserve">
<style type="text/css">
	.st0{opacity:0.5;fill:#2C3952;}
	.st1{opacity:0.6;fill:#FFFFFF;}
</style>
<path class="st0" d="M111.364,0.82001H9.64112c-0.37079,0-0.73713,0-1.10695,0.00194
	C8.22461,0.82388,7.9175,0.82951,7.60496,0.83424C6.92598,0.84189,6.2486,0.89907,5.57869,1.0053
	c-0.66896,0.10853-1.31697,0.31315-1.9221,0.60693C3.0522,1.9085,2.49995,2.29347,2.01987,2.75318
	C1.53728,3.21159,1.13499,3.74145,0.8285,4.32239C0.52115,4.90217,0.30804,5.52346,0.19652,6.1648
	c-0.11258,0.64053-0.17316,1.28845-0.1812,1.93794C0.00594,8.39953,0.00494,8.6973,0,8.99413V31.3687
	c0.00494,0.3006,0.00594,0.5918,0.01532,0.8924c0.00804,0.6495,0.06862,1.2974,0.1812,1.9379
	c0.11121,0.6417,0.32434,1.2633,0.63198,1.8433c0.30636,0.5791,0.70869,1.1068,1.19137,1.5627
	c0.47826,0.4617,1.03086,0.847,1.63672,1.141c0.60513,0.2945,1.25307,0.5004,1.9221,0.6106
	c0.67002,0.1053,1.34734,0.1626,2.02627,0.1711c0.31254,0.0066,0.61965,0.0104,0.92921,0.0104
	C8.90398,39.54,9.27035,39.54,9.64112,39.54H111.364c0.364,0,0.733,0,1.096-0.0019c0.309,0,0.625-0.0038,0.933-0.0104
	c0.677-0.0081,1.353-0.0653,2.022-0.1711c0.671-0.111,1.321-0.3168,1.929-0.6106c0.606-0.2942,1.158-0.6794,1.636-1.141
	c0.481-0.4577,0.884-0.985,1.194-1.5627c0.306-0.5804,0.517-1.202,0.626-1.8433c0.113-0.6406,0.17599-1.2884,0.188-1.9379
	c0.004-0.3006,0.004-0.5918,0.004-0.8924C121,31.0171,121,30.6673,121,30.3099V10.051c0-0.35451,0-0.70616-0.008-1.05687
	c0-0.29683,0-0.5946-0.004-0.89143c-0.012-0.64954-0.075-1.29732-0.188-1.93793c-0.109-0.64097-0.32-1.26222-0.626-1.84242
	c-0.624-1.16443-1.61301-2.11227-2.83-2.71021c-0.608-0.29306-1.258-0.49762-1.929-0.60693
	c-0.669-0.10669-1.345-0.1639-2.022-0.17111c-0.308-0.00472-0.624-0.0104-0.933-0.01228c-0.363-0.00194-0.732-0.00194-1.096-0.00194
	V0.82001z"/>
<path class="st1" d="M8.53904,38.693c-0.30808,0-0.60872-0.0038-0.91438-0.0104c-0.63321-0.0079-1.26494-0.0606-1.89001-0.1578
	c-0.58285-0.0961-1.14747-0.2749-1.67524-0.5304c-0.52293-0.2534-0.99988-0.5857-1.41259-0.9841
	c-0.41868-0.3937-0.76726-0.8503-1.03191-1.3518c-0.26756-0.5047-0.45273-1.0457-0.54906-1.6042
	c-0.10402-0.6-0.1603-1.2068-0.16836-1.815c-0.00641-0.2041-0.0148-0.8838-0.0148-0.8838V8.99411
	c0,0,0.00894-0.66928,0.01485-0.86591c0.00771-0.60724,0.06367-1.21305,0.16738-1.81216
	C1.16143,5.75607,1.34674,5.2135,1.61445,4.70712C1.87813,4.206,2.22476,3.74903,2.64092,3.35391
	c0.41569-0.39888,0.89418-0.73285,1.418-0.98975c0.52656-0.2547,1.09011-0.43219,1.67178-0.52654
	c0.62712-0.09819,1.26104-0.15127,1.89644-0.15881l0.9124-0.01182H112.455l0.924,0.0123
	c0.62901,0.00716,1.257,0.05977,1.87901,0.15738c0.587,0.09553,1.157,0.27426,1.689,0.53032
	c1.05,0.51773,1.904,1.33683,2.442,2.34249c0.264,0.50289,0.446,1.04103,0.542,1.59616c0.104,0.60403,0.163,1.2146,0.175,1.82682
	c0.003,0.27414,0.003,0.5686,0.003,0.86165c0.008,0.363,0.008,0.70851,0.008,1.05689v20.2589c0,0.3517,0,0.6949-0.008,1.0408
	c0,0.3148,0,0.6032-0.004,0.9c-0.012,0.6013-0.069,1.2009-0.173,1.7942c-0.094,0.5624-0.278,1.1076-0.546,1.6165
	c-0.266,0.496-0.613,0.9487-1.027,1.3414c-0.413,0.4005-0.89,0.7347-1.415,0.9898c-0.531,0.2574-1.099,0.4368-1.686,0.5322
	c-0.625,0.0977-1.257,0.1505-1.89001,0.1578c-0.296,0.0066-0.60699,0.0104-0.908,0.0104l-1.096,0.0019L8.53904,38.693z"/>
<path class="st0" d="M25.2758,20.0731c0.0113-0.8402,0.2444-1.664,0.6776-2.3947c0.4333-0.7308,1.0526-1.3448,1.8003-1.7848
	c-0.475-0.6495-1.1017-1.1839-1.8302-1.561c-0.7285-0.377-1.5388-0.5862-2.3665-0.611c-1.7658-0.1774-3.4776,1.0115-4.3774,1.0115
	c-0.9172,0-2.3025-0.9939-3.7943-0.9645c-0.965,0.0298-1.9054,0.2985-2.7296,0.7797c-0.8243,0.4812-1.5043,1.1586-1.9737,1.9662
	c-2.03358,3.3706-0.5167,8.3242,1.4313,11.0488c0.9746,1.3341,2.1137,2.8244,3.6042,2.7715
	c1.4585-0.0579,2.0032-0.8903,3.7637-0.8903c1.7442,0,2.2553,0.8903,3.776,0.8567c1.565-0.0243,2.5511-1.34,3.4915-2.6868
	c0.7003-0.9506,1.2392-2.0012,1.5967-3.113c-0.9093-0.3681-1.6852-0.9844-2.2311-1.7718
	C25.5685,21.9421,25.2768,21.0182,25.2758,20.0731z"/>
<path class="st0" d="M22.4034,11.9296c0.8533-0.9806,1.2737-2.2411,1.1719-3.51371c-1.3037,0.13109-2.5079,0.72757-3.3728,1.67061
	c-0.4228,0.4607-0.7467,0.9966-0.953,1.5772c-0.2064,0.5806-0.2912,1.1945-0.2496,1.8064c0.6521,0.0065,1.2972-0.1288,1.8867-0.3957
	C21.4762,12.8076,21.9948,12.4162,22.4034,11.9296z"/>
<path class="st0" d="M42.774,27.0924h-4.7863l-1.1494,3.249H34.811l4.5335-12.0206h2.1062l4.5335,12.0206h-2.0618L42.774,27.0924z
	 M38.4834,25.5931h3.7939l-1.8703-5.2729h-0.0523L38.4834,25.5931z"/>
<path class="st0" d="M55.7749,25.9588c0,2.7235-1.5226,4.4732-3.8205,4.4732c-0.5821,0.0292-1.1609-0.0992-1.6704-0.3704
	c-0.5094-0.2711-0.9287-0.6741-1.21-1.1629h-0.0435v4.3409h-1.8791V21.5763h1.8189v1.4577h0.0345
	c0.2942-0.4864,0.7207-0.8873,1.234-1.1601c0.5133-0.2729,1.0942-0.4074,1.681-0.3893
	C54.2434,21.4847,55.7749,23.2429,55.7749,25.9588z M53.8434,25.9588c0-1.7743-0.9578-2.9408-2.4193-2.9408
	c-1.4357,0-2.4015,1.191-2.4015,2.9408c0,1.7659,0.9658,2.9485,2.4015,2.9485C52.8856,28.9073,53.8434,27.7492,53.8434,25.9588
	L53.8434,25.9588z"/>
<path class="st0" d="M65.8515,25.9588c0,2.7235-1.5232,4.4732-3.821,4.4732c-0.5821,0.0292-1.161-0.0992-1.6704-0.3704
	c-0.5094-0.2711-0.9288-0.6741-1.2101-1.1629h-0.0434v4.3409h-1.8792V21.5763h1.8189v1.4577h0.0346
	c0.2942-0.4864,0.7206-0.8873,1.2339-1.1601c0.5133-0.2729,1.0943-0.4074,1.6811-0.3893
	C64.3194,21.4847,65.8515,23.2429,65.8515,25.9588z M63.9195,25.9588c0-1.7743-0.9578-2.9408-2.4193-2.9408
	c-1.4358,0-2.4015,1.191-2.4015,2.9408c0,1.7659,0.9657,2.9485,2.4015,2.9485C62.9617,28.9073,63.9195,27.7492,63.9195,25.9588z"/>
<path class="st0" d="M72.5099,26.991c0.1393,1.1921,1.3489,1.9747,3.0019,1.9747c1.5839,0,2.7235-0.7827,2.7235-1.8575
	c0-0.933-0.6873-1.4917-2.3147-1.8746l-1.6273-0.3753c-2.30569-0.5331-3.3761-1.5654-3.3761-3.2405
	c0-2.074,1.888-3.4986,4.568-3.4986c2.6543,0,4.4732,1.4246,4.5344,3.4986h-1.8969c-0.1136-1.1996-1.14941-1.9237-2.6632-1.9237
	c-1.5138,0-2.54971,0.7326-2.54971,1.7989c0,0.8499,0.66171,1.3499,2.28011,1.7328l1.3834,0.3251
	c2.57629,0.5833,3.6458,1.574,3.6458,3.3323c0,2.2489-1.8703,3.6574-4.8465,3.6574c-2.7847,0-4.66479-1.3755-4.78629-3.5497
	L72.5099,26.991z"/>
<path class="st0" d="M84.2766,19.5023v2.074h1.7409v1.4246h-1.7409v4.8315c0,0.7505,0.34859,1.1003,1.1139,1.1003
	c0.2067-0.0035,0.41299-0.0173,0.6181-0.0416v1.4161c-0.344,0.0615-0.6937,0.0894-1.0437,0.0831
	c-1.8535,0-2.57629-0.6664-2.57629-2.3661v-5.0233h-1.3311v-1.4246h1.3311v-2.074H84.2766z"/>
<path class="st0" d="M87.0247,25.9587c0-2.7574,1.6964-4.4902,4.3418-4.4902c2.6544,0,4.3429,1.7327,4.3429,4.4902
	c0,2.7651-1.6797,4.4903-4.3429,4.4903C88.7043,30.449,87.0247,28.7238,87.0247,25.9587z M93.7947,25.9587
	c0-1.8915-0.9055-3.0079-2.4282-3.0079c-1.5226,0-2.4281,1.1249-2.4281,3.0079c0,1.8992,0.9055,3.0071,2.4281,3.0071
	C92.8892,28.9658,93.7947,27.8579,93.7947,25.9587L93.7947,25.9587z"/>
<path class="st0" d="M97.2588,21.5764h1.7923v1.4917h0.0434c0.1213-0.4659,0.4064-0.8776,0.8074-1.166
	c0.4011-0.2883,0.8931-0.4357,1.3951-0.4174c0.216-0.0007,0.432,0.0218,0.64301,0.0671v1.6827
	c-0.273-0.08-0.558-0.1167-0.844-0.1088c-0.273-0.0106-0.545,0.0355-0.798,0.1351c-0.252,0.0996-0.47939,0.2504-0.6655,0.4419
	c-0.186,0.1916-0.3265,0.4194-0.4119,0.6679c-0.0854,0.2484-0.11359,0.5116-0.0827,0.7715v5.1983h-1.8791V21.5764z"/>
<path class="st0" d="M110.604,27.7662c-0.252,1.5909-1.87099,2.6828-3.94199,2.6828c-2.663,0-4.316-1.7082-4.316-4.4487
	c0-2.7489,1.662-4.5318,4.237-4.5318c2.533,0,4.126,1.6656,4.126,4.3229v0.6164h-6.466v0.1087
	c-0.03,0.3225,0.012,0.6474,0.124,0.9532c0.111,0.3057,0.289,0.5852,0.522,0.82s0.516,0.4195,0.829,0.5417
	c0.313,0.1223,0.64999,0.1794,0.988,0.1675c0.444,0.0398,0.89-0.0587,1.27-0.2808c0.381-0.2221,0.677-0.5559,0.844-0.9519H110.604z
	 M104.252,25.1505h4.577c0.017-0.29-0.029-0.5802-0.135-0.8524c-0.106-0.2723-0.269-0.5206-0.48-0.7294
	c-0.211-0.2089-0.465-0.3738-0.745-0.4843c-0.281-0.1106-0.582-0.1645-0.886-0.1582c-0.306-0.0018-0.609,0.0545-0.892,0.1656
	c-0.283,0.1111-0.541,0.2747-0.757,0.4815c-0.217,0.2068-0.389,0.4526-0.506,0.7234
	C104.311,24.5674,104.251,24.8576,104.252,25.1505L104.252,25.1505z"/>
<path class="st0" d="M38.2484,9.27157c0.394-0.02707,0.7893,0.02991,1.1575,0.16682c0.3682,0.1369,0.7,0.35033,0.9716,0.62491
	c0.2716,0.2745,0.4761,0.6033,0.5989,0.9627c0.1227,0.3594,0.1607,0.7404,0.111,1.1155c0,1.8453-1.0418,2.906-2.839,2.906h-2.1793
	V9.27157H38.2484z M37.0062,14.2306h1.1375c0.2816,0.0161,0.5633-0.028,0.8247-0.1293c0.2614-0.1013,0.496-0.2571,0.6866-0.4561
	c0.1906-0.199,0.3324-0.4361,0.4152-0.6942c0.0828-0.2581,0.1044-0.5306,0.0633-0.7977c0.0381-0.266,0.0143-0.5369-0.0697-0.793
	c-0.0841-0.2562-0.2263-0.4915-0.4165-0.6889c-0.1901-0.1974-0.4235-0.3521-0.6835-0.453c-0.2599-0.1009-0.54-0.1455-0.8201-0.1306
	h-1.1375V14.2306z"/>
<path class="st0" d="M42.1459,12.866c-0.0286-0.2864,0.0056-0.5754,0.1005-0.8485c0.0949-0.273,0.2483-0.524,0.4505-0.737
	c0.2022-0.2129,0.4486-0.3831,0.7235-0.4995c0.2749-0.1164,0.5722-0.1766,0.8727-0.1766c0.3006,0,0.5979,0.0602,0.8728,0.1766
	c0.2749,0.1164,0.5213,0.2866,0.7235,0.4995c0.2022,0.213,0.3556,0.464,0.4505,0.737c0.0949,0.2731,0.1291,0.5621,0.1005,0.8485
	c0.0292,0.2868-0.0047,0.5762-0.0993,0.8497c-0.0946,0.2735-0.248,0.525-0.4502,0.7383c-0.2023,0.2134-0.4489,0.3839-0.724,0.5006
	c-0.2752,0.1166-0.5728,0.1769-0.8738,0.1769c-0.3009,0-0.5985-0.0603-0.8737-0.1769c-0.2751-0.1167-0.5218-0.2872-0.724-0.5006
	c-0.2022-0.2133-0.3556-0.4648-0.4502-0.7383C42.1506,13.4422,42.1167,13.1528,42.1459,12.866z M45.5161,12.866
	c0-0.9448-0.4434-1.4973-1.2215-1.4973c-0.7811,0-1.2205,0.5525-1.2205,1.4974c0,0.9524,0.4395,1.5006,1.2205,1.5006
	C45.0728,14.3667,45.5161,13.8147,45.5161,12.866L45.5161,12.866z"/>
<path class="st0" d="M52.149,15.0474h-0.9322l-0.941-3.2103h-0.0711l-0.9371,3.2103h-0.9233l-1.2551-4.3589h0.9115l0.8156,3.3261
	h0.0672l0.9361-3.3261h0.862l0.9361,3.3261h0.0711l0.8117-3.3261h0.8986L52.149,15.0474z"/>
<path class="st0" d="M54.4547,10.6886h0.865v0.6925h0.0672c0.1139-0.2487,0.306-0.4572,0.5496-0.5964
	c0.2435-0.1392,0.5264-0.2022,0.8091-0.1802c0.2216-0.0159,0.444,0.016,0.6509,0.0936c0.2069,0.0775,0.3929,0.1986,0.5443,0.3543
	c0.1513,0.1557,0.2641,0.342,0.3301,0.5451c0.0659,0.2031,0.0832,0.4178,0.0507,0.6282v2.8217H57.423v-2.6057
	c0-0.7004-0.3179-1.0488-0.9825-1.0488c-0.1504-0.0067-0.3006,0.0178-0.4402,0.0719c-0.1396,0.054-0.2653,0.1363-0.3686,0.2412
	c-0.1032,0.1049-0.1816,0.23-0.2296,0.3666c-0.0481,0.1366-0.0647,0.2816-0.0488,0.4249v2.55h-0.8986V10.6886z"/>
<path class="st0" d="M59.7534,8.98694h0.8986v6.06036h-0.8986V8.98694z"/>
<path class="st0" d="M61.9011,12.8661c-0.0286-0.2865,0.0057-0.5755,0.1006-0.8486c0.0949-0.273,0.2484-0.5241,0.4506-0.737
	c0.2022-0.213,0.4486-0.3831,0.7235-0.4996c0.2749-0.1164,0.5722-0.1765,0.8728-0.1765s0.5979,0.0601,0.8728,0.1765
	c0.27489,0.1165,0.5214,0.2866,0.72359,0.4996c0.2022,0.2129,0.35561,0.464,0.4505,0.737c0.095,0.2731,0.1292,0.5621,0.1006,0.8486
	c0.0291,0.2867-0.0047,0.5761-0.0994,0.8496c-0.0947,0.2735-0.248,0.525-0.4503,0.7384c-0.2022,0.2133-0.4489,0.3838-0.724,0.5005
	c-0.2752,0.1166-0.5728,0.1769-0.8738,0.1769c-0.3009,0-0.5986-0.0603-0.8737-0.1769c-0.2752-0.1167-0.5218-0.2872-0.7241-0.5005
	c-0.2022-0.2134-0.3556-0.4649-0.4503-0.7384C61.9058,13.4422,61.872,13.1528,61.9011,12.8661z M65.2713,12.8661
	c0-0.9449-0.4433-1.4974-1.2215-1.4974c-0.781,0-1.2204,0.5525-1.2204,1.4974c0,0.9524,0.4394,1.5007,1.2204,1.5007
	C64.828,14.3667,65.2713,13.8147,65.2713,12.8661L65.2713,12.8661z"/>
<path class="st0" d="M67.1421,13.8147c0-0.7846,0.6102-1.2369,1.6935-1.3012l1.2333-0.0681v-0.3762
	c0-0.4604-0.3179-0.7203-0.9321-0.7203c-0.5017,0-0.84921,0.1763-0.94901,0.4844h-0.8699c0.0918-0.7487,0.8275-1.2289,1.8603-1.2289
	c1.1416,0,1.7854,0.544,1.7854,1.4648v2.9782h-0.865v-0.6126H70.0275c-0.14429,0.2198-0.347,0.3989-0.5873,0.5191
	c-0.2402,0.1203-0.5095,0.1773-0.7804,0.1653c-0.1911,0.019-0.3843-0.0005-0.5671-0.0573s-0.3511-0.1497-0.49409-0.2726
	c-0.14301-0.1229-0.2575-0.2731-0.33611-0.441C67.1839,14.1805,67.1428,13.9987,67.1421,13.8147z M70.0689,13.4422v-0.3644
	l-1.1119,0.0681c-0.627,0.0402-0.9114,0.2444-0.9114,0.6286c0,0.3923,0.3555,0.6206,0.8443,0.6206
	c0.1433,0.0139,0.2879,0.0001,0.4255-0.0407c0.1375-0.0407,0.265-0.1075,0.375-0.1964s0.2002-0.1981,0.2653-0.3211
	C70.0207,13.714,70.0592,13.5797,70.0689,13.4422z"/>
<path class="st0" d="M72.1447,12.866c0-1.3773,0.7396-2.2498,1.89-2.2498c0.2845-0.0126,0.5669,0.0527,0.8142,0.1881
	c0.2472,0.1354,0.4491,0.3354,0.582,0.5766h0.0672V8.98694h0.8986v6.06036h-0.8611v-0.6886h-0.0711
	c-0.1432,0.2395-0.3521,0.437-0.6041,0.5711c-0.2521,0.134-0.5376,0.1995-0.8257,0.1894
	C72.8764,15.1192,72.1447,14.2467,72.1447,12.866z M73.0729,12.866c0,0.9246,0.4552,1.4809,1.2166,1.4809
	c0.7573,0,1.2254-0.5644,1.2254-1.4771c0-0.9084-0.473-1.4808-1.2254-1.4808C73.533,11.389,73.0729,11.9491,73.0729,12.866
	L73.0729,12.866z"/>
<path class="st0" d="M80.1145,12.866c-0.0286-0.2864,0.0056-0.5754,0.10049-0.8485c0.0949-0.273,0.24841-0.524,0.4505-0.737
	c0.2022-0.2129,0.4486-0.3831,0.7235-0.4995s0.5722-0.1766,0.8728-0.1766c0.3006,0,0.59779,0.0602,0.8727,0.1766
	s0.5213,0.2866,0.7235,0.4995c0.2022,0.213,0.3556,0.464,0.4505,0.737c0.09489,0.2731,0.1291,0.5621,0.10049,0.8485
	c0.02921,0.2868-0.0047,0.5762-0.0993,0.8497c-0.0946,0.2735-0.248,0.525-0.4502,0.7383c-0.20219,0.2134-0.4489,0.3839-0.724,0.5006
	c-0.2752,0.1166-0.5728,0.1769-0.8737,0.1769c-0.301,0-0.5986-0.0603-0.8738-0.1769c-0.2751-0.1167-0.5217-0.2872-0.724-0.5006
	c-0.2022-0.2133-0.3555-0.4648-0.4502-0.7383C80.1192,13.4422,80.0854,13.1528,80.1145,12.866z M83.4847,12.866
	c0-0.9448-0.44331-1.4973-1.2215-1.4973c-0.781,0-1.2204,0.5525-1.2204,1.4974c0,0.9524,0.4394,1.5006,1.2204,1.5006
	C83.0414,14.3667,83.4847,13.8147,83.4847,12.866z"/>
<path class="st0" d="M85.6146,10.6886h0.865v0.6925h0.0672c0.1139-0.2487,0.306-0.4572,0.5496-0.5964
	c0.2436-0.1392,0.52641-0.2022,0.8092-0.1802c0.2215-0.0159,0.444,0.016,0.65079,0.0936c0.2069,0.0775,0.39291,0.1986,0.5443,0.3543
	c0.1513,0.1557,0.2642,0.342,0.3301,0.5451c0.0659,0.2031,0.0833,0.4178,0.0507,0.6282v2.8217H88.583v-2.6057
	c0-0.7004-0.318-1.0488-0.9826-1.0488c-0.15041-0.0067-0.30061,0.0178-0.4401,0.0719c-0.1396,0.054-0.2654,0.1363-0.3687,0.2412
	c-0.1032,0.1049-0.1816,0.23-0.22961,0.3666c-0.0481,0.1366-0.0647,0.2816-0.0488,0.4249v2.55h-0.8986V10.6886z"/>
<path class="st0" d="M94.5592,9.60327v1.10503h0.9865v0.7246h-0.9865v2.2414c0,0.4565,0.1965,0.6565,0.64381,0.6565
	c0.11449-0.0004,0.2289-0.007,0.3427-0.0199v0.7166c-0.1614,0.0276-0.3249,0.0423-0.4888,0.0439
	c-0.9994,0-1.3973-0.3365-1.3973-1.1769v-2.4616h-0.7228v-0.7246h0.7228V9.60327H94.5592z"/>
<path class="st0" d="M96.7729,8.98694h0.89069V11.389h0.07111c0.1195-0.251,0.31689-0.4607,0.5653-0.6004
	c0.2485-0.1398,0.5359-0.2028,0.8231-0.1804c0.2204-0.0115,0.4407,0.0237,0.6452,0.1031c0.2045,0.0794,0.38869,0.2011,0.5377,0.3563
	c0.15,0.1552,0.262,0.3401,0.329,0.5416c0.06599,0.2015,0.086,0.4145,0.056,0.6239v2.8142h-0.8993v-2.6019
	c0-0.6963-0.3388-1.0489-0.9737-1.0489c-0.1544-0.0121-0.3098,0.0082-0.4552,0.0596c-0.1453,0.0513-0.2772,0.1325-0.3864,0.2377
	c-0.1092,0.1053-0.1931,0.2321-0.2457,0.3717c-0.0527,0.1395-0.0728,0.2883-0.0591,0.4361v2.5457H96.773L96.7729,8.98694z"/>
<path class="st0" d="M105.931,13.8704c-0.122,0.3984-0.387,0.743-0.748,0.9735c-0.36,0.2306-0.794,0.3323-1.225,0.2876
	c-0.3,0.0076-0.598-0.0474-0.874-0.1612c-0.275-0.1138-0.522-0.2836-0.722-0.4976c-0.2-0.2141-0.349-0.4673-0.437-0.742
	c-0.08701-0.2748-0.112-0.5645-0.07-0.8491c-0.04-0.2854-0.01601-0.5757,0.072-0.8513c0.087-0.2756,0.235-0.5299,0.434-0.7459
	c0.199-0.2159,0.445-0.3884,0.719-0.5057c0.275-0.1173,0.573-0.1768,0.874-0.1743c1.267,0,2.031,0.8286,2.031,2.1973v0.3002h-3.215
	v0.0482c-0.014,0.16,0.007,0.321,0.062,0.4727c0.054,0.1517,0.141,0.2909,0.256,0.4084c0.11401,0.1176,0.252,0.211,0.40601,0.2743
	c0.155,0.0633,0.321,0.0951,0.488,0.0933c0.215,0.0247,0.433-0.0123,0.626-0.1064s0.352-0.241,0.458-0.422H105.931z M102.77,12.4657
	h2.3c0.011-0.1463-0.01-0.2932-0.061-0.4314c-0.052-0.1381-0.133-0.2644-0.23901-0.3708
	c-0.105-0.1063-0.23299-0.1904-0.37399-0.2467c-0.14201-0.0563-0.29401-0.0836-0.44701-0.0803
	c-0.156-0.0018-0.31,0.0261-0.45399,0.0822c-0.144,0.0561-0.274,0.1392-0.384,0.2444c-0.11,0.1053-0.197,0.2305-0.256,0.3683
	C102.797,12.1693,102.768,12.3169,102.77,12.4657L102.77,12.4657z"/>
</svg>
