<svg width="18" height="16" viewBox="0 0 18 16" fill="none" xmlns="http://www.w3.org/2000/svg">
<path fill-rule="evenodd" clip-rule="evenodd" d="M4.90385 15.6667V0.333333C4.90385 0.149238 5.05882 0 5.25 0H7.84615C8.03733 0 8.19231 0.149238 8.19231 0.333333V15.6667C8.19231 15.8508 8.03733 16 7.84615 16H5.25C5.05882 16 4.90385 15.8508 4.90385 15.6667ZM0 15.6667V11C0 10.8159 0.154978 10.6667 0.346154 10.6667H2.94231C3.13348 10.6667 3.28846 10.8159 3.28846 11V15.6667C3.28846 15.8508 3.13348 16 2.94231 16H0.346154C0.154978 16 0 15.8508 0 15.6667ZM9.80769 15.6667V8.33333C9.80769 8.14924 9.96267 8 10.1538 8H12.75C12.9412 8 13.0962 8.14924 13.0962 8.33333V15.6667C13.0962 15.8508 12.9412 16 12.75 16H10.1538C9.96267 16 9.80769 15.8508 9.80769 15.6667ZM14.7115 15.6667V5.66667C14.7115 5.48257 14.8665 5.33333 15.0577 5.33333H17.6538C17.845 5.33333 18 5.48257 18 5.66667V15.6667C18 15.8508 17.845 16 17.6538 16H15.0577C14.8665 16 14.7115 15.8508 14.7115 15.6667Z" fill="#0057FF"/>
</svg>
