<svg width="36" height="22" viewBox="0 0 36 22" fill="none" xmlns="http://www.w3.org/2000/svg">
<path fill-rule="evenodd" clip-rule="evenodd" d="M19.62 0H24.4519C24.93 0 25.3912 0.1947 25.7231 0.5383L28.7944 3.6653V14.7473C28.6594 14.5926 28.5131 14.4437 28.35 14.3063L20.16 7.5368L21.6281 6.1681C21.9937 5.8245 22.0219 5.246 21.6844 4.8738C21.3525 4.5015 20.7787 4.4786 20.4131 4.8165L15.9187 9.0087C15.9159 9.0116 15.9117 9.013 15.9075 9.0144C15.9033 9.0159 15.8991 9.0173 15.8962 9.0202C14.9569 9.8735 13.455 9.6616 12.7406 8.8655C11.9419 7.9778 11.925 6.5518 12.8587 5.6584C12.8616 5.6555 12.8644 5.6512 12.8672 5.6469C12.87 5.6426 12.8728 5.6383 12.8756 5.6355L18.405 0.4811C18.7369 0.1718 19.17 0 19.62 0ZM30.6 16.4997V3.6768H36V18.3324H32.4C31.4044 18.3324 30.6 17.5134 30.6 16.4997ZM33.3 16.4997C32.805 16.4997 32.4 16.0873 32.4 15.5833C32.4 15.0793 32.805 14.667 33.3 14.667C33.795 14.667 34.2 15.0793 34.2 15.5833C34.2 16.0873 33.795 16.4997 33.3 16.4997ZM3.6 18.3267H0V3.6768H5.4V16.494C5.4 17.5077 4.5956 18.3267 3.6 18.3267ZM2.7 14.667C3.195 14.667 3.6 15.0793 3.6 15.5833C3.6 16.0873 3.195 16.4997 2.7 16.4997C2.205 16.4997 1.8 16.0873 1.8 15.5833C1.8 15.0736 2.205 14.667 2.7 14.667ZM18.8212 8.7911L27.2194 15.7323C27.99 16.3737 28.1081 17.5249 27.4781 18.3152L26.9437 18.9853C26.3194 19.7756 25.1831 19.8902 24.4125 19.2545L24.1087 19.0025L22.3425 21.2131C21.6169 22.1237 20.295 22.2669 19.4006 21.5224L18.3937 20.6347L18.3825 20.6462C17.1281 22.2154 14.8612 22.4559 13.32 21.1788L8.2294 16.4883H7.2V3.6653L10.2769 0.5383C10.6144 0.1947 11.07 0 11.5481 0H16.2619L11.6606 4.2896C10.0181 5.8245 9.9 8.4303 11.4131 10.114C12.9037 11.7692 15.4631 11.9181 17.1337 10.366L18.8212 8.7911Z" fill="#0057FF"/>
</svg>
